# xmcd
#
# Track frame offsets: 
#        150
#        17763
#        32303
#        49332
#        59095
#        76893
#        95964
#        111449
#        126962
#        147793
#        164125
#        181530
#        198764
#        209124
#        230498
#        244515
#        258217
#
# Disc length: 3643 seconds
#
# Revision: 0
# Processed by: cddbd v1.5.2PL0 Copyright (c) Steve Scherf et al.
# Submitted via: ExactAudioCopyFreeDBPlugin 1.0
#
DISCID=f20e3911
DTITLE=Various Artist - Best Of Blues and Roots 2010
DYEAR=2010
DGENRE=Blues
TTITLE0=Jeff Lang - I Don't Like Him Being In Here
TTITLE1=Seasick Steve - Man From Another Time
TTITLE2=Lisa Mitchell - Clean White Love
TTITLE3=The Snowdroppers - Do The Stomp
TTITLE4=Newton Faulkner - Dream Catch Me
TTITLE5=Old Crow Medicine Show - Crazy Eyes
TTITLE6=Donavon Frankreiter - Don't Change
TTITLE7=Eric Bibb - Get Onboard
TTITLE8=Sime Nugent - Gentle As She Goes
TTITLE9=Little Birdy - Brother
TTITLE10=Danny Widdcombe - My Desires
TTITLE11=Dan Mangan - Sold
TTITLE12=Neil Halstead - Elevenses
TTITLE13=The Swell Season - Low Rising
TTITLE14=Zee Avi - Honey Bee
TTITLE15=Mark Sholtez - All Four Seasons
TTITLE16=Jason Lowe - All Comes In Turn
EXTD=
EXTT0=
EXTT1=
EXTT2=
EXTT3=
EXTT4=
EXTT5=
EXTT6=
EXTT7=
EXTT8=
EXTT9=
EXTT10=
EXTT11=
EXTT12=
EXTT13=
EXTT14=
EXTT15=
EXTT16=
PLAYORDER=
